<svg width="474" height="140" viewBox="0 0 474 140" fill="none" xmlns="http://www.w3.org/2000/svg">
<path d="M97.7238 68.4625C100.246 69.2378 102.412 70.9497 104.223 73.5984C106.034 76.1825 106.393 79.1542 106.393 82.5135C106.393 89.6843 104.611 95.0463 99.9549 98.5994C95.2988 102.088 88.5086 103.832 79.5843 103.832H39.6191C38.9077 103.832 38.2934 103.574 37.776 103.057C37.2587 102.54 37 101.926 37 101.216V38.6164C37 37.9058 37.2587 37.292 37.776 36.7752C38.2934 36.2584 38.9077 36 39.6191 36H78.6142C87.7972 36 94.5551 37.6797 98.8879 41.039C103.285 44.3337 105.484 49.3403 105.484 56.0589V56.3497C105.484 59.4506 104.643 62.0992 102.962 64.2957C101.281 66.4922 99.5345 67.8811 97.7238 68.4625ZM79.1963 56.9311C79.1963 55.7682 78.8406 54.7669 78.1292 53.9271C77.4825 53.0872 76.5125 52.6673 75.2192 52.6673H62.2208V61.4855H75.2192C76.5125 61.4855 77.4825 61.0333 78.1292 60.1289C78.8406 59.1598 79.1963 58.0939 79.1963 56.9311ZM76.2862 87.1648C77.7736 87.1648 78.8729 86.6803 79.5843 85.7113C80.3603 84.6777 80.7483 83.5471 80.7483 82.3197V82.2228C80.7483 80.9953 80.328 79.9294 79.4873 79.025C78.7113 78.1205 77.6442 77.6683 76.2862 77.6683H62.2208V87.1648H76.2862Z" fill="black"/>
<path d="M175.843 84.9361C176.554 84.9361 177.169 85.1945 177.686 85.7113C178.203 86.2281 178.462 86.8418 178.462 87.5524V101.216C178.462 101.926 178.203 102.54 177.686 103.057C177.169 103.574 176.554 103.832 175.843 103.832H114.537C113.826 103.832 112.282 103.822 111.765 103.305C111.247 102.788 110.941 101.926 110.941 101.216V38.6164C110.941 37.9058 112.177 37.292 112.694 36.7752C113.211 36.2584 113.826 36 114.537 36H174.873C175.584 36 176.198 36.2584 176.716 36.7752C177.233 37.292 177.492 37.9058 177.492 38.6164V52.2797C177.492 52.9903 177.233 53.6041 176.716 54.1209C176.198 54.6377 175.584 54.8961 174.873 54.8961H156.006H137.139V61.001H169.538C170.249 61.001 170.863 61.2594 171.381 61.7762C171.898 62.293 172.157 62.9068 172.157 63.6174V76.2148C172.157 76.9254 171.898 77.5391 171.381 78.0559C170.863 78.5728 170.249 78.8312 169.538 78.8312H137.139V84.9361H175.843Z" fill="black"/>
<path d="M263.698 36C264.41 36 265.024 36.2584 265.541 36.7752C266.059 37.292 266.317 37.9058 266.317 38.6164L244.476 101.216C244.105 101.934 244.217 102.54 243.7 103.057C243.182 103.574 242.568 103.832 241.857 103.832H230.611C229.899 103.832 229.285 103.574 228.768 103.057C228.25 102.54 227.992 101.926 227.992 101.216V80.5754H208.591V101.216C208.591 101.926 208.332 102.54 207.815 103.057C207.298 103.574 206.683 103.832 205.972 103.832H185.989C185.278 103.832 184.664 103.606 184.146 103.154C183.629 102.637 183.37 101.991 183.37 101.216V38.6164C183.37 37.9058 183.629 37.292 184.146 36.7752C184.664 36.2584 185.278 36 185.989 36H205.972C206.683 36 207.298 36.2584 207.815 36.7752C208.332 37.292 208.591 37.9058 208.591 38.6164V58.4815H227.992V38.6164C227.992 37.9058 228.25 37.292 228.768 36.7752C229.285 36.2584 229.899 36 230.611 36H263.698Z" fill="black"/>
<path d="M275.097 100.537C274.256 102.734 272.801 103.832 270.732 103.832H252.398C251.816 103.832 251.299 103.638 250.846 103.251C250.458 102.799 250.264 102.282 250.264 101.7L250.361 101.119L271.508 39.1978C271.767 38.358 272.252 37.6151 272.963 36.969C273.674 36.323 274.644 36 275.873 36H302.84C304.069 36 305.039 36.323 305.75 36.969C306.461 37.6151 306.946 38.358 307.205 39.1978L328.352 101.119L328.449 101.7C328.449 102.282 328.222 102.799 327.77 103.251C327.382 103.638 326.897 103.832 326.315 103.832H307.981C305.912 103.832 304.457 102.734 303.616 100.537L301.191 93.7542H277.522L275.097 100.537ZM289.357 54.7023L282.469 74.8581H296.244L289.357 54.7023Z" fill="black"/>
<path d="M385.826 36C386.408 36 386.893 36.2261 387.281 36.6783C387.733 37.0659 387.96 37.5505 387.96 38.1319L387.863 38.8102L365.552 100.634C365.229 101.539 364.711 102.314 364 102.96C363.289 103.541 362.351 103.832 361.187 103.832H338.585C337.421 103.832 336.483 103.541 335.772 102.96C335.061 102.314 334.576 101.636 334.317 100.925L311.812 38.8102L311.715 38.1319C311.715 37.5505 311.909 37.0659 312.297 36.6783C312.75 36.2261 313.267 36 313.849 36H334.317C335.481 36 336.419 36.3553 337.13 37.0659C337.906 37.712 338.424 38.4226 338.682 39.1978L349.493 88.8314L360.993 39.1978C361.252 38.358 361.737 37.6151 362.448 36.969C363.159 36.323 364.129 36 365.358 36H385.826Z" fill="black"/>
<path d="M434.381 84.9361C435.092 84.9361 435.707 85.1945 436.224 85.7113C436.741 86.2281 437 86.8418 437 87.5524V101.216C437 101.926 436.741 102.54 436.224 103.057C435.707 103.574 435.092 103.832 434.381 103.832H373.075C372.364 103.832 371.749 103.574 371.232 103.057C370.715 102.54 370.456 101.926 370.456 101.216L392.298 38.6164C392.298 37.9058 392.557 37.292 393.074 36.7752C393.591 36.2584 394.206 36 394.917 36H433.411C434.122 36 434.737 36.2584 435.254 36.7752C435.771 37.292 436.03 37.9058 436.03 38.6164V52.2797C436.03 52.9903 435.771 53.6041 435.254 54.1209C434.737 54.6377 434.122 54.8961 433.411 54.8961H401.137V61.001H428.076C428.787 61.001 429.401 61.2594 429.919 61.7762C430.436 62.293 430.695 62.9068 430.695 63.6174V76.2148C430.695 76.9254 430.436 77.5391 429.919 78.0559C429.401 78.5728 428.787 78.8312 428.076 78.8312H401.137V84.9361H434.381Z" fill="black"/>
<path d="M175.843 84.9361C176.554 84.9361 177.169 85.1945 177.686 85.7113C178.203 86.2281 178.462 86.8418 178.462 87.5524V101.216C178.462 101.926 178.203 102.54 177.686 103.057C177.169 103.574 176.554 103.832 175.843 103.832H114.537C113.826 103.832 112.282 103.822 111.765 103.305C111.247 102.788 110.941 101.926 110.941 101.216V38.6164C110.941 37.9058 112.177 37.292 112.694 36.7752C113.211 36.2584 113.826 36 114.537 36H174.873C175.584 36 176.198 36.2584 176.716 36.7752C177.233 37.292 177.492 37.9058 177.492 38.6164V52.2797C177.492 52.9903 177.233 53.6041 176.716 54.1209C176.198 54.6377 175.584 54.8961 174.873 54.8961H156.006H137.139V61.001H169.538C170.249 61.001 170.863 61.2594 171.381 61.7762C171.898 62.293 172.157 62.9068 172.157 63.6174V76.2148C172.157 76.9254 171.898 77.5391 171.381 78.0559C170.863 78.5728 170.249 78.8312 169.538 78.8312H137.139V84.9361H175.843Z" fill="black"/>
</svg>
